# Blender v3.1.2 OBJ File: 'platform.blend'
# www.blender.org
o Cube
v 1.000000 1.000000 -1.000000
v 1.000000 -1.000000 -1.000000
v 1.000000 1.000000 1.000000
v 1.000000 -1.000000 1.000000
v -1.000000 1.000000 -1.000000
v -1.000000 -1.000000 -1.000000
v -1.000000 1.000000 1.000000
v -1.000000 -1.000000 1.000000
vt 0.375022 0.000108
vt 0.624978 0.250065
vt 0.375022 0.250065
vt 0.874935 0.999935
vt 0.624978 0.749978
vt 0.874935 0.749978
vt 0.624978 0.999935
vt 0.375022 0.749978
vt 0.375022 0.500022
vt 0.624978 0.500022
vt 0.375022 0.999935
vt 0.125065 0.749978
vt 0.624978 0.000108
vt 0.125065 0.999935
vn 0.0000 1.0000 0.0000
vn 0.0000 0.0000 1.0000
vn -1.0000 0.0000 0.0000
vn 0.0000 -1.0000 0.0000
vn 1.0000 0.0000 0.0000
vn 0.0000 0.0000 -1.0000
s off
f 5/1/1 3/2/1 1/3/1
f 3/4/2 8/5/2 4/6/2
f 7/7/3 6/8/3 8/5/3
f 2/9/4 8/5/4 6/8/4
f 1/3/5 4/10/5 2/9/5
f 5/11/6 2/12/6 6/8/6
f 5/1/1 7/13/1 3/2/1
f 3/4/2 7/7/2 8/5/2
f 7/7/3 5/11/3 6/8/3
f 2/9/4 4/10/4 8/5/4
f 1/3/5 3/2/5 4/10/5
f 5/11/6 1/14/6 2/12/6
